<svg version='1.1' baseProfile='full' xmlns='http://www.w3.org/2000/svg' width='428.41832280964474' height='120.14410360600606'><g transform='translate(5, 5)'><g transform='scale(0.9164355994259474) translate(0, -50)'><g><g><polyline points="80,100 92,100 104,100 " style="fill: none; stroke: black;"></polyline><g transform="translate(90, 105)"><text text-anchor="start" y="3" transform="rotate(90)" font-size="12"></text></g></g><g transform="translate(-14, 105)"><text text-anchor="start" y="3" transform="rotate(90)" font-size="12"></text></g></g><g><g><polyline points="184,100 196,100 208,100 " style="fill: none; stroke: black;"></polyline><g transform="translate(194, 105)"><text text-anchor="start" y="3" transform="rotate(90)" font-size="12"></text></g></g></g><g><g><polyline points="236.57142857142856,100 248.57142857142856,100 260.57142857142856,100 " style="fill: none; stroke: black;"></polyline><g transform="translate(246.57142857142856, 105)"><text text-anchor="start" y="3" transform="rotate(90)" font-size="12"></text></g></g></g><g><g><polyline points="280.57142857142856,100 292.57142857142856,100 304.57142857142856,100 " style="fill: none; stroke: black;"></polyline><g transform="translate(290.57142857142856, 105)"><text text-anchor="start" y="3" transform="rotate(90)" font-size="12"></text></g></g></g><g><g><polyline points="324.57142857142856,100 336.57142857142856,100 348.57142857142856,100 " style="fill: none; stroke: black;"></polyline></g></g><g><g><polyline points="368.57142857142856,100 380.57142857142856,100 392.57142857142856,100 " style="fill: none; stroke: black;"></polyline></g></g><g><g><polyline points="412.57142857142856,100 424.57142857142856,100 436.57142857142856,100 " style="fill: none; stroke: black;"></polyline></g></g><g></g><g><g transform="translate(0, 50)"><path d="M 0 0 L 80 0 V 100 L 0 100 V 0 z" style="fill: rgb(33, 150, 243); stroke: rgb(12, 124, 213); stroke-width: 4; stroke-linejoin: round;"></path><g></g><text text-anchor="middle" x="40" y="117" font-size="12">32</text></g></g><g><g transform="translate(104, 50)"><path d="M 0 0 L 80 0 V 100 L 0 100 V 0 z" style="fill: rgb(139, 195, 74); stroke: rgb(113, 164, 54); stroke-width: 4; stroke-linejoin: round;"></path><g></g><text text-anchor="middle" x="40" y="117" font-size="12">32</text></g></g><g><g transform="translate(208, 50)"><path d="M 0 0 L 28.57142857142857 0 V 100 L 0 100 V 0 z" style="fill: rgb(33, 150, 243); stroke: rgb(12, 124, 213); stroke-width: 4; stroke-linejoin: round;"></path><g></g><text text-anchor="middle" x="14.285714285714285" y="117" font-size="12">8</text></g></g><g><g transform="translate(260.57142857142856, 50)"><path d="M 0 0 L 20 0 V 100 L 0 100 V 0 z" style="fill: rgb(244, 67, 54); stroke: rgb(234, 28, 13); stroke-width: 4; stroke-linejoin: round;"></path><g></g><text text-anchor="middle" x="10" y="117" font-size="12">4</text></g></g><g><g transform="translate(304.57142857142856, 50)"><path d="M 0 31.612903225806452 L 20 31.612903225806452 V 68.38709677419355 L 0 68.38709677419355 V 31.612903225806452 z" style="fill: rgb(121, 85, 72); stroke: rgb(89, 63, 53); stroke-width: 4; stroke-linejoin: round;"></path><g></g><text text-anchor="middle" x="10" y="85.38709677419355" font-size="12">4</text></g></g><g><g transform="translate(348.57142857142856, 50)"><path d="M 0 0 L 20 0 V 100 L 0 100 V 0 z" style="fill: rgb(255, 235, 59); stroke: rgb(255, 230, 8); stroke-width: 4; stroke-linejoin: round;"></path><g></g><text text-anchor="middle" x="10" y="117" font-size="12">32</text></g></g><g><g transform="translate(392.57142857142856, 50)"><path d="M 0 18.064516129032256 L 20 18.064516129032256 V 81.93548387096774 L 0 81.93548387096774 V 18.064516129032256 z" style="fill: rgb(255, 235, 59); stroke: rgb(255, 230, 8); stroke-width: 4; stroke-linejoin: round;"></path><g></g><text text-anchor="middle" x="10" y="98.93548387096774" font-size="12">16</text></g></g><g><g transform="translate(436.57142857142856, 50)"><path d="M 0 35 L 20 35 V 65 L 0 65 V 35 z" style="fill: rgb(255, 235, 59); stroke: rgb(255, 230, 8); stroke-width: 4; stroke-linejoin: round;"></path><g></g><text text-anchor="middle" x="10" y="82" font-size="12">1</text></g></g></g></g></svg>