<?xml version="1.0" encoding="UTF-8"?><svg xmlns="http://www.w3.org/2000/svg" xmlns:xlink="http://www.w3.org/1999/xlink" stroke-dasharray="none" shape-rendering="auto" font-family="'Dialog'" width="728" text-rendering="auto" fill-opacity="1" contentScriptType="text/ecmascript" color-interpolation="auto" color-rendering="auto" preserveAspectRatio="xMidYMid meet" font-size="12" fill="black" stroke="black" image-rendering="auto" stroke-miterlimit="10" zoomAndPan="magnify" version="1.0" stroke-linecap="square" stroke-linejoin="miter" contentStyleType="text/css" font-style="normal" height="413" stroke-width="1" stroke-dashoffset="0" font-weight="normal" stroke-opacity="1">
    <!--Generated by the Batik Graphics2D SVG Generator-->
    <defs id="genericDefs"/>
    <g>
        <defs id="defs1">
            <clipPath clipPathUnits="userSpaceOnUse" id="clipPath1">
                <path d="M53 38 L688 38 L688 378 L53 378 L53 38 Z"/>
            </clipPath>
            <clipPath clipPathUnits="userSpaceOnUse" id="clipPath2">
                <path d="M-1 -1 L729 -1 L729 414 L-1 414 L-1 -1 Z"/>
            </clipPath>
            <clipPath clipPathUnits="userSpaceOnUse" id="clipPath3">
                <path d="M492 43 L684 43 L684 105 L492 105 L492 43 Z"/>
            </clipPath>
        </defs>
        <g font-size="14" fill="white" text-rendering="optimizeLegibility" font-family="'Ubuntu'" stroke-linejoin="round" stroke="white" stroke-width="0" stroke-miterlimit="0">
            <rect x="54" y="39" clip-path="url(#clipPath1)" width="633" height="338" stroke="none"/>
        </g>
        <g stroke-linecap="butt" font-size="14" fill="rgb(204,204,204)" text-rendering="optimizeLegibility" font-family="'Ubuntu'" stroke-dasharray="3,3" stroke="rgb(204,204,204)">
            <line clip-path="url(#clipPath1)" fill="none" x1="91" x2="91" y1="39" y2="377"/>
            <line clip-path="url(#clipPath1)" fill="none" x1="163" x2="163" y1="39" y2="377"/>
            <line clip-path="url(#clipPath1)" fill="none" x1="235" x2="235" y1="39" y2="377"/>
            <line clip-path="url(#clipPath1)" fill="none" x1="308" x2="308" y1="39" y2="377"/>
            <line clip-path="url(#clipPath1)" fill="none" x1="380" x2="380" y1="39" y2="377"/>
            <line clip-path="url(#clipPath1)" fill="none" x1="452" x2="452" y1="39" y2="377"/>
            <line clip-path="url(#clipPath1)" fill="none" x1="524" x2="524" y1="39" y2="377"/>
            <line clip-path="url(#clipPath1)" fill="none" x1="596" x2="596" y1="39" y2="377"/>
            <line clip-path="url(#clipPath1)" fill="none" x1="669" x2="669" y1="39" y2="377"/>
            <line clip-path="url(#clipPath1)" fill="none" x1="54" x2="687" y1="366" y2="366"/>
            <line clip-path="url(#clipPath1)" fill="none" x1="54" x2="687" y1="315" y2="315"/>
            <line clip-path="url(#clipPath1)" fill="none" x1="54" x2="687" y1="265" y2="265"/>
            <line clip-path="url(#clipPath1)" fill="none" x1="54" x2="687" y1="214" y2="214"/>
            <line clip-path="url(#clipPath1)" fill="none" x1="54" x2="687" y1="163" y2="163"/>
            <line clip-path="url(#clipPath1)" fill="none" x1="54" x2="687" y1="112" y2="112"/>
            <line clip-path="url(#clipPath1)" fill="none" x1="54" x2="687" y1="62" y2="62"/>
        </g>
        <g stroke-linecap="butt" font-size="14" fill="rgb(31,119,180)" text-rendering="geometricPrecision" font-family="'Ubuntu'" shape-rendering="crispEdges" stroke="rgb(31,119,180)" stroke-width="1.5">
            <line clip-path="url(#clipPath1)" fill="none" x1="19" x2="19" y1="335" y2="345"/>
            <line clip-path="url(#clipPath1)" fill="none" text-rendering="optimizeLegibility" x1="19" x2="55" y1="345" y2="320" shape-rendering="auto"/>
            <line clip-path="url(#clipPath1)" fill="none" x1="55" x2="55" y1="320" y2="330"/>
            <line clip-path="url(#clipPath1)" fill="none" text-rendering="optimizeLegibility" x1="55" x2="91" y1="330" y2="304" shape-rendering="auto"/>
            <line clip-path="url(#clipPath1)" fill="none" x1="91" x2="91" y1="304" y2="315"/>
            <line clip-path="url(#clipPath1)" fill="none" text-rendering="optimizeLegibility" x1="91" x2="127" y1="315" y2="290" shape-rendering="auto"/>
            <line clip-path="url(#clipPath1)" fill="none" x1="127" x2="127" y1="290" y2="300"/>
            <line clip-path="url(#clipPath1)" fill="none" text-rendering="optimizeLegibility" x1="127" x2="163" y1="300" y2="275" shape-rendering="auto"/>
            <line clip-path="url(#clipPath1)" fill="none" x1="163" x2="163" y1="275" y2="285"/>
            <line clip-path="url(#clipPath1)" fill="none" text-rendering="optimizeLegibility" x1="163" x2="199" y1="285" y2="260" shape-rendering="auto"/>
            <line clip-path="url(#clipPath1)" fill="none" x1="199" x2="199" y1="260" y2="269"/>
            <line clip-path="url(#clipPath1)" fill="none" text-rendering="optimizeLegibility" x1="199" x2="235" y1="269" y2="244" shape-rendering="auto"/>
            <line clip-path="url(#clipPath1)" fill="none" x1="235" x2="235" y1="244" y2="255"/>
            <line clip-path="url(#clipPath1)" fill="none" text-rendering="optimizeLegibility" x1="235" x2="271" y1="255" y2="230" shape-rendering="auto"/>
            <line clip-path="url(#clipPath1)" fill="none" x1="271" x2="271" y1="230" y2="239"/>
            <line clip-path="url(#clipPath1)" fill="none" text-rendering="optimizeLegibility" x1="271" x2="308" y1="239" y2="214" shape-rendering="auto"/>
            <line clip-path="url(#clipPath1)" fill="none" x1="308" x2="308" y1="214" y2="224"/>
            <line clip-path="url(#clipPath1)" fill="none" text-rendering="optimizeLegibility" x1="308" x2="344" y1="224" y2="198" shape-rendering="auto"/>
            <line clip-path="url(#clipPath1)" fill="none" x1="344" x2="344" y1="198" y2="209"/>
            <line clip-path="url(#clipPath1)" fill="none" text-rendering="optimizeLegibility" x1="344" x2="380" y1="209" y2="184" shape-rendering="auto"/>
            <line clip-path="url(#clipPath1)" fill="none" x1="380" x2="380" y1="184" y2="194"/>
            <line clip-path="url(#clipPath1)" fill="none" text-rendering="optimizeLegibility" x1="380" x2="416" y1="194" y2="169" shape-rendering="auto"/>
            <line clip-path="url(#clipPath1)" fill="none" x1="416" x2="416" y1="169" y2="179"/>
            <line clip-path="url(#clipPath1)" fill="none" text-rendering="optimizeLegibility" x1="416" x2="452" y1="179" y2="153" shape-rendering="auto"/>
            <line clip-path="url(#clipPath1)" fill="none" x1="452" x2="452" y1="153" y2="163"/>
            <line clip-path="url(#clipPath1)" fill="none" text-rendering="optimizeLegibility" x1="452" x2="488" y1="163" y2="138" shape-rendering="auto"/>
            <line clip-path="url(#clipPath1)" fill="none" x1="488" x2="488" y1="138" y2="148"/>
            <line clip-path="url(#clipPath1)" fill="none" text-rendering="optimizeLegibility" x1="488" x2="524" y1="148" y2="122" shape-rendering="auto"/>
            <line clip-path="url(#clipPath1)" fill="none" x1="524" x2="524" y1="122" y2="133"/>
            <line clip-path="url(#clipPath1)" fill="none" text-rendering="optimizeLegibility" x1="524" x2="560" y1="133" y2="108" shape-rendering="auto"/>
            <line clip-path="url(#clipPath1)" fill="none" x1="560" x2="560" y1="108" y2="117"/>
            <line clip-path="url(#clipPath1)" fill="none" text-rendering="optimizeLegibility" x1="560" x2="596" y1="117" y2="91" shape-rendering="auto"/>
            <line clip-path="url(#clipPath1)" fill="none" x1="596" x2="596" y1="91" y2="103"/>
            <line clip-path="url(#clipPath1)" fill="none" text-rendering="optimizeLegibility" x1="596" x2="633" y1="103" y2="78" shape-rendering="auto"/>
            <line clip-path="url(#clipPath1)" fill="none" x1="633" x2="633" y1="78" y2="88"/>
            <line clip-path="url(#clipPath1)" fill="none" text-rendering="optimizeLegibility" x1="633" x2="669" y1="88" y2="62" shape-rendering="auto"/>
            <line clip-path="url(#clipPath1)" fill="none" x1="669" x2="669" y1="62" y2="73"/>
            <line clip-path="url(#clipPath1)" fill="none" text-rendering="optimizeLegibility" x1="669" x2="705" y1="73" y2="47" shape-rendering="auto"/>
            <line clip-path="url(#clipPath1)" fill="none" x1="705" x2="705" y1="47" y2="56"/>
            <line clip-path="url(#clipPath1)" fill="none" x1="19" x2="19" y1="382" y2="346" stroke="rgb(255,127,14)"/>
        </g>
        <g stroke-linecap="butt" font-size="14" fill="rgb(255,127,14)" text-rendering="optimizeLegibility" font-family="'Ubuntu'" stroke="rgb(255,127,14)" stroke-width="1.5">
            <line clip-path="url(#clipPath1)" fill="none" x1="19" x2="55" y1="346" y2="366"/>
            <line clip-path="url(#clipPath1)" fill="none" text-rendering="geometricPrecision" x1="55" x2="55" y1="366" y2="330" shape-rendering="crispEdges"/>
            <line clip-path="url(#clipPath1)" fill="none" x1="55" x2="91" y1="330" y2="350"/>
            <line clip-path="url(#clipPath1)" fill="none" text-rendering="geometricPrecision" x1="91" x2="91" y1="350" y2="315" shape-rendering="crispEdges"/>
            <line clip-path="url(#clipPath1)" fill="none" x1="91" x2="127" y1="315" y2="336"/>
            <line clip-path="url(#clipPath1)" fill="none" text-rendering="geometricPrecision" x1="127" x2="127" y1="336" y2="300" shape-rendering="crispEdges"/>
            <line clip-path="url(#clipPath1)" fill="none" x1="127" x2="163" y1="300" y2="320"/>
            <line clip-path="url(#clipPath1)" fill="none" text-rendering="geometricPrecision" x1="163" x2="163" y1="320" y2="284" shape-rendering="crispEdges"/>
            <line clip-path="url(#clipPath1)" fill="none" x1="163" x2="199" y1="284" y2="304"/>
            <line clip-path="url(#clipPath1)" fill="none" text-rendering="geometricPrecision" x1="199" x2="199" y1="304" y2="270" shape-rendering="crispEdges"/>
            <line clip-path="url(#clipPath1)" fill="none" x1="199" x2="235" y1="270" y2="291"/>
            <line clip-path="url(#clipPath1)" fill="none" text-rendering="geometricPrecision" x1="235" x2="235" y1="291" y2="253" shape-rendering="crispEdges"/>
            <line clip-path="url(#clipPath1)" fill="none" x1="235" x2="271" y1="253" y2="274"/>
            <line clip-path="url(#clipPath1)" fill="none" text-rendering="geometricPrecision" x1="271" x2="271" y1="274" y2="239" shape-rendering="crispEdges"/>
            <line clip-path="url(#clipPath1)" fill="none" x1="271" x2="308" y1="239" y2="259"/>
            <line clip-path="url(#clipPath1)" fill="none" text-rendering="geometricPrecision" x1="308" x2="308" y1="259" y2="225" shape-rendering="crispEdges"/>
            <line clip-path="url(#clipPath1)" fill="none" x1="308" x2="344" y1="225" y2="245"/>
            <line clip-path="url(#clipPath1)" fill="none" text-rendering="geometricPrecision" x1="344" x2="344" y1="245" y2="209" shape-rendering="crispEdges"/>
            <line clip-path="url(#clipPath1)" fill="none" x1="344" x2="380" y1="209" y2="229"/>
            <line clip-path="url(#clipPath1)" fill="none" text-rendering="geometricPrecision" x1="380" x2="380" y1="229" y2="193" shape-rendering="crispEdges"/>
            <line clip-path="url(#clipPath1)" fill="none" x1="380" x2="416" y1="193" y2="213"/>
            <line clip-path="url(#clipPath1)" fill="none" text-rendering="geometricPrecision" x1="416" x2="416" y1="213" y2="178" shape-rendering="crispEdges"/>
            <line clip-path="url(#clipPath1)" fill="none" x1="416" x2="452" y1="178" y2="198"/>
            <line clip-path="url(#clipPath1)" fill="none" text-rendering="geometricPrecision" x1="452" x2="452" y1="198" y2="164" shape-rendering="crispEdges"/>
            <line clip-path="url(#clipPath1)" fill="none" x1="452" x2="488" y1="164" y2="184"/>
            <line clip-path="url(#clipPath1)" fill="none" text-rendering="geometricPrecision" x1="488" x2="488" y1="184" y2="149" shape-rendering="crispEdges"/>
            <line clip-path="url(#clipPath1)" fill="none" x1="488" x2="524" y1="149" y2="169"/>
            <line clip-path="url(#clipPath1)" fill="none" text-rendering="geometricPrecision" x1="524" x2="524" y1="169" y2="132" shape-rendering="crispEdges"/>
            <line clip-path="url(#clipPath1)" fill="none" x1="524" x2="560" y1="132" y2="153"/>
            <line clip-path="url(#clipPath1)" fill="none" text-rendering="geometricPrecision" x1="560" x2="560" y1="153" y2="117" shape-rendering="crispEdges"/>
            <line clip-path="url(#clipPath1)" fill="none" x1="560" x2="596" y1="117" y2="137"/>
            <line clip-path="url(#clipPath1)" fill="none" text-rendering="geometricPrecision" x1="596" x2="596" y1="137" y2="102" shape-rendering="crispEdges"/>
            <line clip-path="url(#clipPath1)" fill="none" x1="596" x2="633" y1="102" y2="122"/>
            <line clip-path="url(#clipPath1)" fill="none" text-rendering="geometricPrecision" x1="633" x2="633" y1="122" y2="87" shape-rendering="crispEdges"/>
            <line clip-path="url(#clipPath1)" fill="none" x1="633" x2="669" y1="87" y2="107"/>
            <line clip-path="url(#clipPath1)" fill="none" text-rendering="geometricPrecision" x1="669" x2="669" y1="107" y2="71" shape-rendering="crispEdges"/>
            <line clip-path="url(#clipPath1)" fill="none" x1="669" x2="705" y1="71" y2="91"/>
            <line clip-path="url(#clipPath1)" fill="none" text-rendering="geometricPrecision" x1="705" x2="705" y1="91" y2="57" shape-rendering="crispEdges"/>
            <line clip-path="url(#clipPath1)" fill="none" x1="-1353" x2="5868" y1="924" y2="-2117" stroke="rgb(44,160,44)"/>
            <rect x="54" y="39" clip-path="url(#clipPath2)" fill="none" width="633" height="338" stroke="black" stroke-width="1"/>
        </g>
        <g text-rendering="optimizeLegibility" font-size="13" font-family="'Arial'" stroke-linecap="butt">
            <text xml:space="preserve" x="249" y="12" clip-path="url(#clipPath2)" stroke="none">Clock time to simulation time difference</text>
            <rect x="493" y="44" clip-path="url(#clipPath3)" fill="white" width="189" opacity="0.7529" height="59" stroke="none"/>
            <line clip-path="url(#clipPath3)" fill="none" x1="499" x2="513" y1="55" y2="55" stroke="rgb(31,119,180)" stroke-width="2"/>
            <text x="515" font-size="10" y="59" clip-path="url(#clipPath3)" stroke="none" stroke-width="2" xml:space="preserve">ClockDriftShowcase.source1.clock</text>
        </g>
        <g stroke-linecap="butt" font-size="10" fill="rgb(255,127,14)" text-rendering="optimizeLegibility" font-family="'Arial'" stroke="rgb(255,127,14)" stroke-width="2">
            <line clip-path="url(#clipPath3)" fill="none" x1="499" x2="513" y1="73" y2="73"/>
            <text x="515" y="77" clip-path="url(#clipPath3)" fill="black" stroke="none" xml:space="preserve">ClockDriftShowcase.source2.clock</text>
            <line clip-path="url(#clipPath3)" fill="none" x1="499" x2="513" y1="91" y2="91" stroke="rgb(44,160,44)"/>
            <text x="515" y="95" clip-path="url(#clipPath3)" fill="black" stroke="none" xml:space="preserve">ClockDriftShowcase.switch1.clock</text>
            <line clip-path="url(#clipPath2)" fill="none" x1="54" x2="687" y1="37" y2="37" stroke="black" stroke-width="1"/>
            <line clip-path="url(#clipPath2)" fill="none" x1="54" x2="687" y1="379" y2="379" stroke="black" stroke-width="1"/>
            <text x="329" y="411" clip-path="url(#clipPath2)" fill="black" stroke="none" stroke-width="1" xml:space="preserve">Simulation time [s]</text>
            <line clip-path="url(#clipPath2)" fill="none" x1="62" x2="62" y1="35" y2="37" stroke="black" stroke-width="1"/>
            <line clip-path="url(#clipPath2)" fill="none" x1="62" x2="62" y1="381" y2="379" stroke="black" stroke-width="1"/>
            <line clip-path="url(#clipPath2)" fill="none" x1="76" x2="76" y1="35" y2="37" stroke="black" stroke-width="1"/>
            <line clip-path="url(#clipPath2)" fill="none" x1="76" x2="76" y1="381" y2="379" stroke="black" stroke-width="1"/>
            <line clip-path="url(#clipPath2)" fill="none" x1="91" x2="91" y1="33" y2="37" stroke="black" stroke-width="1"/>
            <line clip-path="url(#clipPath2)" fill="none" x1="91" x2="91" y1="383" y2="379" stroke="black" stroke-width="1"/>
            <text x="82" y="30" clip-path="url(#clipPath2)" fill="black" stroke="none" stroke-width="1" xml:space="preserve">0.02</text>
            <text x="82" y="394" clip-path="url(#clipPath2)" fill="black" stroke="none" stroke-width="1" xml:space="preserve">0.02</text>
            <line clip-path="url(#clipPath2)" fill="none" x1="105" x2="105" y1="35" y2="37" stroke="black" stroke-width="1"/>
            <line clip-path="url(#clipPath2)" fill="none" x1="105" x2="105" y1="381" y2="379" stroke="black" stroke-width="1"/>
            <line clip-path="url(#clipPath2)" fill="none" x1="120" x2="120" y1="35" y2="37" stroke="black" stroke-width="1"/>
            <line clip-path="url(#clipPath2)" fill="none" x1="120" x2="120" y1="381" y2="379" stroke="black" stroke-width="1"/>
            <line clip-path="url(#clipPath2)" fill="none" x1="134" x2="134" y1="35" y2="37" stroke="black" stroke-width="1"/>
            <line clip-path="url(#clipPath2)" fill="none" x1="134" x2="134" y1="381" y2="379" stroke="black" stroke-width="1"/>
            <line clip-path="url(#clipPath2)" fill="none" x1="149" x2="149" y1="35" y2="37" stroke="black" stroke-width="1"/>
            <line clip-path="url(#clipPath2)" fill="none" x1="149" x2="149" y1="381" y2="379" stroke="black" stroke-width="1"/>
            <line clip-path="url(#clipPath2)" fill="none" x1="163" x2="163" y1="33" y2="37" stroke="black" stroke-width="1"/>
            <line clip-path="url(#clipPath2)" fill="none" x1="163" x2="163" y1="383" y2="379" stroke="black" stroke-width="1"/>
            <text x="151" y="30" clip-path="url(#clipPath2)" fill="black" stroke="none" stroke-width="1" xml:space="preserve">0.021</text>
            <text x="151" y="394" clip-path="url(#clipPath2)" fill="black" stroke="none" stroke-width="1" xml:space="preserve">0.021</text>
            <line clip-path="url(#clipPath2)" fill="none" x1="178" x2="178" y1="35" y2="37" stroke="black" stroke-width="1"/>
            <line clip-path="url(#clipPath2)" fill="none" x1="178" x2="178" y1="381" y2="379" stroke="black" stroke-width="1"/>
            <line clip-path="url(#clipPath2)" fill="none" x1="192" x2="192" y1="35" y2="37" stroke="black" stroke-width="1"/>
            <line clip-path="url(#clipPath2)" fill="none" x1="192" x2="192" y1="381" y2="379" stroke="black" stroke-width="1"/>
            <line clip-path="url(#clipPath2)" fill="none" x1="206" x2="206" y1="35" y2="37" stroke="black" stroke-width="1"/>
            <line clip-path="url(#clipPath2)" fill="none" x1="206" x2="206" y1="381" y2="379" stroke="black" stroke-width="1"/>
            <line clip-path="url(#clipPath2)" fill="none" x1="221" x2="221" y1="35" y2="37" stroke="black" stroke-width="1"/>
            <line clip-path="url(#clipPath2)" fill="none" x1="221" x2="221" y1="381" y2="379" stroke="black" stroke-width="1"/>
            <line clip-path="url(#clipPath2)" fill="none" x1="235" x2="235" y1="33" y2="37" stroke="black" stroke-width="1"/>
            <line clip-path="url(#clipPath2)" fill="none" x1="235" x2="235" y1="383" y2="379" stroke="black" stroke-width="1"/>
            <text x="223" y="30" clip-path="url(#clipPath2)" fill="black" stroke="none" stroke-width="1" xml:space="preserve">0.022</text>
            <text x="223" y="394" clip-path="url(#clipPath2)" fill="black" stroke="none" stroke-width="1" xml:space="preserve">0.022</text>
            <line clip-path="url(#clipPath2)" fill="none" x1="250" x2="250" y1="35" y2="37" stroke="black" stroke-width="1"/>
            <line clip-path="url(#clipPath2)" fill="none" x1="250" x2="250" y1="381" y2="379" stroke="black" stroke-width="1"/>
            <line clip-path="url(#clipPath2)" fill="none" x1="264" x2="264" y1="35" y2="37" stroke="black" stroke-width="1"/>
            <line clip-path="url(#clipPath2)" fill="none" x1="264" x2="264" y1="381" y2="379" stroke="black" stroke-width="1"/>
            <line clip-path="url(#clipPath2)" fill="none" x1="279" x2="279" y1="35" y2="37" stroke="black" stroke-width="1"/>
            <line clip-path="url(#clipPath2)" fill="none" x1="279" x2="279" y1="381" y2="379" stroke="black" stroke-width="1"/>
            <line clip-path="url(#clipPath2)" fill="none" x1="293" x2="293" y1="35" y2="37" stroke="black" stroke-width="1"/>
            <line clip-path="url(#clipPath2)" fill="none" x1="293" x2="293" y1="381" y2="379" stroke="black" stroke-width="1"/>
            <line clip-path="url(#clipPath2)" fill="none" x1="308" x2="308" y1="33" y2="37" stroke="black" stroke-width="1"/>
            <line clip-path="url(#clipPath2)" fill="none" x1="308" x2="308" y1="383" y2="379" stroke="black" stroke-width="1"/>
            <text x="296" y="30" clip-path="url(#clipPath2)" fill="black" stroke="none" stroke-width="1" xml:space="preserve">0.023</text>
            <text x="296" y="394" clip-path="url(#clipPath2)" fill="black" stroke="none" stroke-width="1" xml:space="preserve">0.023</text>
            <line clip-path="url(#clipPath2)" fill="none" x1="322" x2="322" y1="35" y2="37" stroke="black" stroke-width="1"/>
            <line clip-path="url(#clipPath2)" fill="none" x1="322" x2="322" y1="381" y2="379" stroke="black" stroke-width="1"/>
            <line clip-path="url(#clipPath2)" fill="none" x1="336" x2="336" y1="35" y2="37" stroke="black" stroke-width="1"/>
            <line clip-path="url(#clipPath2)" fill="none" x1="336" x2="336" y1="381" y2="379" stroke="black" stroke-width="1"/>
            <line clip-path="url(#clipPath2)" fill="none" x1="351" x2="351" y1="35" y2="37" stroke="black" stroke-width="1"/>
            <line clip-path="url(#clipPath2)" fill="none" x1="351" x2="351" y1="381" y2="379" stroke="black" stroke-width="1"/>
            <line clip-path="url(#clipPath2)" fill="none" x1="365" x2="365" y1="35" y2="37" stroke="black" stroke-width="1"/>
            <line clip-path="url(#clipPath2)" fill="none" x1="365" x2="365" y1="381" y2="379" stroke="black" stroke-width="1"/>
            <line clip-path="url(#clipPath2)" fill="none" x1="380" x2="380" y1="33" y2="37" stroke="black" stroke-width="1"/>
            <line clip-path="url(#clipPath2)" fill="none" x1="380" x2="380" y1="383" y2="379" stroke="black" stroke-width="1"/>
            <text x="368" y="30" clip-path="url(#clipPath2)" fill="black" stroke="none" stroke-width="1" xml:space="preserve">0.024</text>
            <text x="368" y="394" clip-path="url(#clipPath2)" fill="black" stroke="none" stroke-width="1" xml:space="preserve">0.024</text>
            <line clip-path="url(#clipPath2)" fill="none" x1="394" x2="394" y1="35" y2="37" stroke="black" stroke-width="1"/>
            <line clip-path="url(#clipPath2)" fill="none" x1="394" x2="394" y1="381" y2="379" stroke="black" stroke-width="1"/>
            <line clip-path="url(#clipPath2)" fill="none" x1="409" x2="409" y1="35" y2="37" stroke="black" stroke-width="1"/>
            <line clip-path="url(#clipPath2)" fill="none" x1="409" x2="409" y1="381" y2="379" stroke="black" stroke-width="1"/>
            <line clip-path="url(#clipPath2)" fill="none" x1="423" x2="423" y1="35" y2="37" stroke="black" stroke-width="1"/>
            <line clip-path="url(#clipPath2)" fill="none" x1="423" x2="423" y1="381" y2="379" stroke="black" stroke-width="1"/>
            <line clip-path="url(#clipPath2)" fill="none" x1="438" x2="438" y1="35" y2="37" stroke="black" stroke-width="1"/>
            <line clip-path="url(#clipPath2)" fill="none" x1="438" x2="438" y1="381" y2="379" stroke="black" stroke-width="1"/>
            <line clip-path="url(#clipPath2)" fill="none" x1="452" x2="452" y1="33" y2="37" stroke="black" stroke-width="1"/>
            <line clip-path="url(#clipPath2)" fill="none" x1="452" x2="452" y1="383" y2="379" stroke="black" stroke-width="1"/>
            <text x="440" y="30" clip-path="url(#clipPath2)" fill="black" stroke="none" stroke-width="1" xml:space="preserve">0.025</text>
            <text x="440" y="394" clip-path="url(#clipPath2)" fill="black" stroke="none" stroke-width="1" xml:space="preserve">0.025</text>
            <line clip-path="url(#clipPath2)" fill="none" x1="466" x2="466" y1="35" y2="37" stroke="black" stroke-width="1"/>
            <line clip-path="url(#clipPath2)" fill="none" x1="466" x2="466" y1="381" y2="379" stroke="black" stroke-width="1"/>
            <line clip-path="url(#clipPath2)" fill="none" x1="481" x2="481" y1="35" y2="37" stroke="black" stroke-width="1"/>
            <line clip-path="url(#clipPath2)" fill="none" x1="481" x2="481" y1="381" y2="379" stroke="black" stroke-width="1"/>
            <line clip-path="url(#clipPath2)" fill="none" x1="495" x2="495" y1="35" y2="37" stroke="black" stroke-width="1"/>
            <line clip-path="url(#clipPath2)" fill="none" x1="495" x2="495" y1="381" y2="379" stroke="black" stroke-width="1"/>
            <line clip-path="url(#clipPath2)" fill="none" x1="510" x2="510" y1="35" y2="37" stroke="black" stroke-width="1"/>
            <line clip-path="url(#clipPath2)" fill="none" x1="510" x2="510" y1="381" y2="379" stroke="black" stroke-width="1"/>
            <line clip-path="url(#clipPath2)" fill="none" x1="524" x2="524" y1="33" y2="37" stroke="black" stroke-width="1"/>
            <line clip-path="url(#clipPath2)" fill="none" x1="524" x2="524" y1="383" y2="379" stroke="black" stroke-width="1"/>
            <text x="512" y="30" clip-path="url(#clipPath2)" fill="black" stroke="none" stroke-width="1" xml:space="preserve">0.026</text>
            <text x="512" y="394" clip-path="url(#clipPath2)" fill="black" stroke="none" stroke-width="1" xml:space="preserve">0.026</text>
            <line clip-path="url(#clipPath2)" fill="none" x1="539" x2="539" y1="35" y2="37" stroke="black" stroke-width="1"/>
            <line clip-path="url(#clipPath2)" fill="none" x1="539" x2="539" y1="381" y2="379" stroke="black" stroke-width="1"/>
            <line clip-path="url(#clipPath2)" fill="none" x1="553" x2="553" y1="35" y2="37" stroke="black" stroke-width="1"/>
            <line clip-path="url(#clipPath2)" fill="none" x1="553" x2="553" y1="381" y2="379" stroke="black" stroke-width="1"/>
            <line clip-path="url(#clipPath2)" fill="none" x1="568" x2="568" y1="35" y2="37" stroke="black" stroke-width="1"/>
            <line clip-path="url(#clipPath2)" fill="none" x1="568" x2="568" y1="381" y2="379" stroke="black" stroke-width="1"/>
            <line clip-path="url(#clipPath2)" fill="none" x1="582" x2="582" y1="35" y2="37" stroke="black" stroke-width="1"/>
            <line clip-path="url(#clipPath2)" fill="none" x1="582" x2="582" y1="381" y2="379" stroke="black" stroke-width="1"/>
            <line clip-path="url(#clipPath2)" fill="none" x1="596" x2="596" y1="33" y2="37" stroke="black" stroke-width="1"/>
            <line clip-path="url(#clipPath2)" fill="none" x1="596" x2="596" y1="383" y2="379" stroke="black" stroke-width="1"/>
            <text x="584" y="30" clip-path="url(#clipPath2)" fill="black" stroke="none" stroke-width="1" xml:space="preserve">0.027</text>
            <text x="584" y="394" clip-path="url(#clipPath2)" fill="black" stroke="none" stroke-width="1" xml:space="preserve">0.027</text>
            <line clip-path="url(#clipPath2)" fill="none" x1="611" x2="611" y1="35" y2="37" stroke="black" stroke-width="1"/>
            <line clip-path="url(#clipPath2)" fill="none" x1="611" x2="611" y1="381" y2="379" stroke="black" stroke-width="1"/>
            <line clip-path="url(#clipPath2)" fill="none" x1="625" x2="625" y1="35" y2="37" stroke="black" stroke-width="1"/>
            <line clip-path="url(#clipPath2)" fill="none" x1="625" x2="625" y1="381" y2="379" stroke="black" stroke-width="1"/>
            <line clip-path="url(#clipPath2)" fill="none" x1="640" x2="640" y1="35" y2="37" stroke="black" stroke-width="1"/>
            <line clip-path="url(#clipPath2)" fill="none" x1="640" x2="640" y1="381" y2="379" stroke="black" stroke-width="1"/>
            <line clip-path="url(#clipPath2)" fill="none" x1="654" x2="654" y1="35" y2="37" stroke="black" stroke-width="1"/>
            <line clip-path="url(#clipPath2)" fill="none" x1="654" x2="654" y1="381" y2="379" stroke="black" stroke-width="1"/>
            <line clip-path="url(#clipPath2)" fill="none" x1="669" x2="669" y1="33" y2="37" stroke="black" stroke-width="1"/>
            <line clip-path="url(#clipPath2)" fill="none" x1="669" x2="669" y1="383" y2="379" stroke="black" stroke-width="1"/>
            <text x="657" y="30" clip-path="url(#clipPath2)" fill="black" stroke="none" stroke-width="1" xml:space="preserve">0.028</text>
            <text x="657" y="394" clip-path="url(#clipPath2)" fill="black" stroke="none" stroke-width="1" xml:space="preserve">0.028</text>
            <line clip-path="url(#clipPath2)" fill="none" x1="683" x2="683" y1="35" y2="37" stroke="black" stroke-width="1"/>
            <line clip-path="url(#clipPath2)" fill="none" x1="683" x2="683" y1="381" y2="379" stroke="black" stroke-width="1"/>
            <line clip-path="url(#clipPath2)" fill="none" x1="52" x2="52" y1="39" y2="377" stroke="black" stroke-width="1"/>
            <line clip-path="url(#clipPath2)" fill="none" x1="689" x2="689" y1="39" y2="377" stroke="black" stroke-width="1"/>
            <line clip-path="url(#clipPath2)" fill="none" x1="50" x2="52" y1="376" y2="376" stroke="black" stroke-width="1"/>
            <line clip-path="url(#clipPath2)" fill="none" x1="691" x2="689" y1="376" y2="376" stroke="black" stroke-width="1"/>
            <line clip-path="url(#clipPath2)" fill="none" x1="48" x2="52" y1="366" y2="366" stroke="black" stroke-width="1"/>
            <line clip-path="url(#clipPath2)" fill="none" x1="693" x2="689" y1="366" y2="366" stroke="black" stroke-width="1"/>
            <text x="18" y="370" clip-path="url(#clipPath2)" fill="black" stroke="none" stroke-width="1" xml:space="preserve">5.5e-6</text>
            <text x="696" y="370" clip-path="url(#clipPath2)" fill="black" stroke="none" stroke-width="1" xml:space="preserve">5.5e-6</text>
            <line clip-path="url(#clipPath2)" fill="none" x1="50" x2="52" y1="356" y2="356" stroke="black" stroke-width="1"/>
            <line clip-path="url(#clipPath2)" fill="none" x1="691" x2="689" y1="356" y2="356" stroke="black" stroke-width="1"/>
            <line clip-path="url(#clipPath2)" fill="none" x1="50" x2="52" y1="346" y2="346" stroke="black" stroke-width="1"/>
            <line clip-path="url(#clipPath2)" fill="none" x1="691" x2="689" y1="346" y2="346" stroke="black" stroke-width="1"/>
            <line clip-path="url(#clipPath2)" fill="none" x1="50" x2="52" y1="336" y2="336" stroke="black" stroke-width="1"/>
            <line clip-path="url(#clipPath2)" fill="none" x1="691" x2="689" y1="336" y2="336" stroke="black" stroke-width="1"/>
            <line clip-path="url(#clipPath2)" fill="none" x1="50" x2="52" y1="325" y2="325" stroke="black" stroke-width="1"/>
            <line clip-path="url(#clipPath2)" fill="none" x1="691" x2="689" y1="325" y2="325" stroke="black" stroke-width="1"/>
            <line clip-path="url(#clipPath2)" fill="none" x1="48" x2="52" y1="315" y2="315" stroke="black" stroke-width="1"/>
            <line clip-path="url(#clipPath2)" fill="none" x1="693" x2="689" y1="315" y2="315" stroke="black" stroke-width="1"/>
            <text x="26" y="319" clip-path="url(#clipPath2)" fill="black" stroke="none" stroke-width="1" xml:space="preserve">6e-6</text>
            <text x="696" y="319" clip-path="url(#clipPath2)" fill="black" stroke="none" stroke-width="1" xml:space="preserve">6e-6</text>
            <line clip-path="url(#clipPath2)" fill="none" x1="50" x2="52" y1="305" y2="305" stroke="black" stroke-width="1"/>
            <line clip-path="url(#clipPath2)" fill="none" x1="691" x2="689" y1="305" y2="305" stroke="black" stroke-width="1"/>
            <line clip-path="url(#clipPath2)" fill="none" x1="50" x2="52" y1="295" y2="295" stroke="black" stroke-width="1"/>
            <line clip-path="url(#clipPath2)" fill="none" x1="691" x2="689" y1="295" y2="295" stroke="black" stroke-width="1"/>
            <line clip-path="url(#clipPath2)" fill="none" x1="50" x2="52" y1="285" y2="285" stroke="black" stroke-width="1"/>
            <line clip-path="url(#clipPath2)" fill="none" x1="691" x2="689" y1="285" y2="285" stroke="black" stroke-width="1"/>
            <line clip-path="url(#clipPath2)" fill="none" x1="50" x2="52" y1="275" y2="275" stroke="black" stroke-width="1"/>
            <line clip-path="url(#clipPath2)" fill="none" x1="691" x2="689" y1="275" y2="275" stroke="black" stroke-width="1"/>
            <line clip-path="url(#clipPath2)" fill="none" x1="48" x2="52" y1="265" y2="265" stroke="black" stroke-width="1"/>
            <line clip-path="url(#clipPath2)" fill="none" x1="693" x2="689" y1="265" y2="265" stroke="black" stroke-width="1"/>
            <text x="18" y="269" clip-path="url(#clipPath2)" fill="black" stroke="none" stroke-width="1" xml:space="preserve">6.5e-6</text>
            <text x="696" y="269" clip-path="url(#clipPath2)" fill="black" stroke="none" stroke-width="1" xml:space="preserve">6.5e-6</text>
            <line clip-path="url(#clipPath2)" fill="none" x1="50" x2="52" y1="254" y2="254" stroke="black" stroke-width="1"/>
            <line clip-path="url(#clipPath2)" fill="none" x1="691" x2="689" y1="254" y2="254" stroke="black" stroke-width="1"/>
            <line clip-path="url(#clipPath2)" fill="none" x1="50" x2="52" y1="244" y2="244" stroke="black" stroke-width="1"/>
            <line clip-path="url(#clipPath2)" fill="none" x1="691" x2="689" y1="244" y2="244" stroke="black" stroke-width="1"/>
            <line clip-path="url(#clipPath2)" fill="none" x1="50" x2="52" y1="234" y2="234" stroke="black" stroke-width="1"/>
            <line clip-path="url(#clipPath2)" fill="none" x1="691" x2="689" y1="234" y2="234" stroke="black" stroke-width="1"/>
            <line clip-path="url(#clipPath2)" fill="none" x1="50" x2="52" y1="224" y2="224" stroke="black" stroke-width="1"/>
            <line clip-path="url(#clipPath2)" fill="none" x1="691" x2="689" y1="224" y2="224" stroke="black" stroke-width="1"/>
            <line clip-path="url(#clipPath2)" fill="none" x1="48" x2="52" y1="214" y2="214" stroke="black" stroke-width="1"/>
            <line clip-path="url(#clipPath2)" fill="none" x1="693" x2="689" y1="214" y2="214" stroke="black" stroke-width="1"/>
            <text x="26" y="218" clip-path="url(#clipPath2)" fill="black" stroke="none" stroke-width="1" xml:space="preserve">7e-6</text>
            <text x="696" y="218" clip-path="url(#clipPath2)" fill="black" stroke="none" stroke-width="1" xml:space="preserve">7e-6</text>
            <line clip-path="url(#clipPath2)" fill="none" x1="50" x2="52" y1="204" y2="204" stroke="black" stroke-width="1"/>
            <line clip-path="url(#clipPath2)" fill="none" x1="691" x2="689" y1="204" y2="204" stroke="black" stroke-width="1"/>
            <line clip-path="url(#clipPath2)" fill="none" x1="50" x2="52" y1="194" y2="194" stroke="black" stroke-width="1"/>
            <line clip-path="url(#clipPath2)" fill="none" x1="691" x2="689" y1="194" y2="194" stroke="black" stroke-width="1"/>
            <line clip-path="url(#clipPath2)" fill="none" x1="50" x2="52" y1="183" y2="183" stroke="black" stroke-width="1"/>
            <line clip-path="url(#clipPath2)" fill="none" x1="691" x2="689" y1="183" y2="183" stroke="black" stroke-width="1"/>
            <line clip-path="url(#clipPath2)" fill="none" x1="50" x2="52" y1="173" y2="173" stroke="black" stroke-width="1"/>
            <line clip-path="url(#clipPath2)" fill="none" x1="691" x2="689" y1="173" y2="173" stroke="black" stroke-width="1"/>
            <line clip-path="url(#clipPath2)" fill="none" x1="48" x2="52" y1="163" y2="163" stroke="black" stroke-width="1"/>
            <line clip-path="url(#clipPath2)" fill="none" x1="693" x2="689" y1="163" y2="163" stroke="black" stroke-width="1"/>
            <text x="18" y="167" clip-path="url(#clipPath2)" fill="black" stroke="none" stroke-width="1" xml:space="preserve">7.5e-6</text>
            <text x="696" y="167" clip-path="url(#clipPath2)" fill="black" stroke="none" stroke-width="1" xml:space="preserve">7.5e-6</text>
            <line clip-path="url(#clipPath2)" fill="none" x1="50" x2="52" y1="153" y2="153" stroke="black" stroke-width="1"/>
            <line clip-path="url(#clipPath2)" fill="none" x1="691" x2="689" y1="153" y2="153" stroke="black" stroke-width="1"/>
            <line clip-path="url(#clipPath2)" fill="none" x1="50" x2="52" y1="143" y2="143" stroke="black" stroke-width="1"/>
            <line clip-path="url(#clipPath2)" fill="none" x1="691" x2="689" y1="143" y2="143" stroke="black" stroke-width="1"/>
            <line clip-path="url(#clipPath2)" fill="none" x1="50" x2="52" y1="133" y2="133" stroke="black" stroke-width="1"/>
            <line clip-path="url(#clipPath2)" fill="none" x1="691" x2="689" y1="133" y2="133" stroke="black" stroke-width="1"/>
            <line clip-path="url(#clipPath2)" fill="none" x1="50" x2="52" y1="123" y2="123" stroke="black" stroke-width="1"/>
            <line clip-path="url(#clipPath2)" fill="none" x1="691" x2="689" y1="123" y2="123" stroke="black" stroke-width="1"/>
            <line clip-path="url(#clipPath2)" fill="none" x1="48" x2="52" y1="112" y2="112" stroke="black" stroke-width="1"/>
            <line clip-path="url(#clipPath2)" fill="none" x1="693" x2="689" y1="112" y2="112" stroke="black" stroke-width="1"/>
            <text x="26" y="116" clip-path="url(#clipPath2)" fill="black" stroke="none" stroke-width="1" xml:space="preserve">8e-6</text>
            <text x="696" y="116" clip-path="url(#clipPath2)" fill="black" stroke="none" stroke-width="1" xml:space="preserve">8e-6</text>
            <line clip-path="url(#clipPath2)" fill="none" x1="50" x2="52" y1="102" y2="102" stroke="black" stroke-width="1"/>
            <line clip-path="url(#clipPath2)" fill="none" x1="691" x2="689" y1="102" y2="102" stroke="black" stroke-width="1"/>
            <line clip-path="url(#clipPath2)" fill="none" x1="50" x2="52" y1="92" y2="92" stroke="black" stroke-width="1"/>
            <line clip-path="url(#clipPath2)" fill="none" x1="691" x2="689" y1="92" y2="92" stroke="black" stroke-width="1"/>
            <line clip-path="url(#clipPath2)" fill="none" x1="50" x2="52" y1="82" y2="82" stroke="black" stroke-width="1"/>
            <line clip-path="url(#clipPath2)" fill="none" x1="691" x2="689" y1="82" y2="82" stroke="black" stroke-width="1"/>
            <line clip-path="url(#clipPath2)" fill="none" x1="50" x2="52" y1="72" y2="72" stroke="black" stroke-width="1"/>
            <line clip-path="url(#clipPath2)" fill="none" x1="691" x2="689" y1="72" y2="72" stroke="black" stroke-width="1"/>
            <line clip-path="url(#clipPath2)" fill="none" x1="48" x2="52" y1="62" y2="62" stroke="black" stroke-width="1"/>
            <line clip-path="url(#clipPath2)" fill="none" x1="693" x2="689" y1="62" y2="62" stroke="black" stroke-width="1"/>
            <text x="18" y="66" clip-path="url(#clipPath2)" fill="black" stroke="none" stroke-width="1" xml:space="preserve">8.5e-6</text>
            <text x="696" y="66" clip-path="url(#clipPath2)" fill="black" stroke="none" stroke-width="1" xml:space="preserve">8.5e-6</text>
            <line clip-path="url(#clipPath2)" fill="none" x1="50" x2="52" y1="52" y2="52" stroke="black" stroke-width="1"/>
            <line clip-path="url(#clipPath2)" fill="none" x1="691" x2="689" y1="52" y2="52" stroke="black" stroke-width="1"/>
            <line clip-path="url(#clipPath2)" fill="none" x1="50" x2="52" y1="41" y2="41" stroke="black" stroke-width="1"/>
            <line clip-path="url(#clipPath2)" fill="none" x1="691" x2="689" y1="41" y2="41" stroke="black" stroke-width="1"/>
        </g>
    </g>
</svg>
